<svg width="24" height="24" viewBox="0 0 24 24" fill="none" xmlns="http://www.w3.org/2000/svg">
<path fill-rule="evenodd" clip-rule="evenodd" d="M20 14.7132C18.502 15.2939 16.8674 15.4269 15.2951 15.0959C13.7229 14.7649 12.2808 13.9842 11.1447 12.8489C10.0085 11.7135 9.22725 10.2726 8.896 8.70146C8.56475 7.13035 8.69782 5.49689 9.279 4C7.47967 4.70071 5.98166 6.00724 5.0436 7.69401C4.10554 9.38078 3.78632 11.3419 4.14106 13.2388C4.49579 15.1357 5.50221 16.8493 6.98656 18.0837C8.4709 19.3181 10.34 19.9959 12.2711 20C13.9427 20.0004 15.5753 19.4958 16.9546 18.5523C18.334 17.6087 19.3955 16.2705 20 14.7132V14.7132Z" fill="#97A7B5"/>
</svg>
